<svg width="35" height="35" viewBox="0 0 35 35" fill="none" xmlns="http://www.w3.org/2000/svg">
<g clip-path="url(#clip0_66_833)">
<path d="M9.27908 24.5068C9.15193 24.3797 8.97556 24.3065 8.79578 24.3065C8.61531 24.3065 8.43962 24.3797 8.31248 24.5068C8.18464 24.634 8.11218 24.8103 8.11218 24.9901C8.11218 25.1699 8.18464 25.3463 8.31248 25.4734C8.43962 25.6006 8.61531 25.6737 8.79578 25.6737C8.97556 25.6737 9.15193 25.6006 9.27908 25.4734C9.40623 25.3463 9.47937 25.1699 9.47937 24.9901C9.47937 24.8103 9.40623 24.634 9.27908 24.5068Z" fill="white"/>
<path d="M15.4766 24.5068C15.3494 24.3797 15.1738 24.3065 14.9933 24.3065C14.8135 24.3065 14.6371 24.3797 14.51 24.5068C14.3828 24.634 14.3097 24.8103 14.3097 24.9901C14.3097 25.1699 14.3828 25.3463 14.51 25.4734C14.6371 25.6006 14.8135 25.6737 14.9933 25.6737C15.1738 25.6737 15.3494 25.6006 15.4766 25.4734C15.6044 25.3463 15.6769 25.1699 15.6769 24.9901C15.6769 24.8103 15.6044 24.634 15.4766 24.5068Z" fill="white"/>
<path d="M32.2417 24.5068C32.1146 24.3797 31.9389 24.3065 31.7584 24.3065C31.5786 24.3065 31.4023 24.3797 31.2751 24.5068C31.148 24.634 31.0748 24.8103 31.0748 24.9901C31.0748 25.1699 31.148 25.3463 31.2751 25.4734C31.4023 25.6006 31.5786 25.6737 31.7584 25.6737C31.9389 25.6737 32.1146 25.6006 32.2417 25.4734C32.3696 25.3463 32.442 25.1699 32.442 24.9901C32.442 24.8103 32.3696 24.634 32.2417 24.5068Z" fill="white"/>
<path d="M29.8142 6.58437C29.6864 6.45723 29.5107 6.38477 29.3302 6.38477C29.1504 6.38477 28.974 6.45723 28.8469 6.58437C28.7198 6.71221 28.6466 6.88789 28.6466 7.06836C28.6466 7.24814 28.7198 7.42451 28.8469 7.55166C28.974 7.67881 29.1504 7.75195 29.3302 7.75195C29.5107 7.75195 29.6864 7.67881 29.8142 7.55166C29.9413 7.42383 30.0138 7.24814 30.0138 7.06836C30.0138 6.88857 29.9413 6.71221 29.8142 6.58437Z" fill="white"/>
<path d="M24.7 4.72706C24.433 4.46012 24.0002 4.46012 23.7332 4.72706L18.5704 9.88977C18.3035 10.1567 18.3035 10.5896 18.5704 10.8566C18.704 10.9901 18.8789 11.0568 19.0538 11.0568C19.2288 11.0568 19.4037 10.9901 19.5372 10.8566L24.7 5.69387C24.9669 5.42693 24.9669 4.99408 24.7 4.72706Z" fill="white"/>
<path d="M10.2995 7.79475H9.43188C9.43216 7.78326 9.43359 7.77212 9.43359 7.76057V1.40137C9.43359 0.628633 8.80496 0 8.03223 0H6.18652C5.41379 0 4.78516 0.628633 4.78516 1.40137V2.07423C4.77367 2.07396 4.76253 2.07252 4.75098 2.07252H2.90527C2.13254 2.07252 1.50391 2.70115 1.50391 3.47389V7.76057C1.50391 7.77212 1.50534 7.78326 1.50562 7.79475H0.683594C0.306045 7.79475 0 8.10079 0 8.47834C0 8.85589 0.306045 9.16193 0.683594 9.16193H2.90527H4.75098H6.18652H8.03223H10.2995C10.6771 9.16193 10.9831 8.85589 10.9831 8.47834C10.9831 8.10079 10.6771 7.79475 10.2995 7.79475ZM4.78516 7.76057C4.78516 7.77943 4.76984 7.79475 4.75098 7.79475H2.90527C2.88641 7.79475 2.87109 7.77943 2.87109 7.76057V3.47389C2.87109 3.45502 2.88641 3.43971 2.90527 3.43971H4.75098C4.76984 3.43971 4.78516 3.45502 4.78516 3.47389V7.76057ZM8.06641 7.76057C8.06641 7.77943 8.05109 7.79475 8.03223 7.79475H6.18652C6.16766 7.79475 6.15234 7.77943 6.15234 7.76057V3.47389V1.40137C6.15234 1.3825 6.16766 1.36719 6.18652 1.36719H8.03223C8.05109 1.36719 8.06641 1.3825 8.06641 1.40137V7.76057Z" fill="white"/>
<path d="M5.83447 10.9967V10.9977L5.83547 10.9967H5.83447Z" fill="white"/>
<path d="M33.2227 15.5859C34.2027 15.5859 35 14.7886 35 13.8086V4.51172C35 3.53172 34.2027 2.73438 33.2227 2.73438H15.7227C14.7427 2.73438 13.9453 3.53172 13.9453 4.51172V13.8086C13.9453 14.7886 14.7427 15.5859 15.7227 15.5859H22.2168V16.7979C22.2168 17.8282 21.3786 18.6663 20.3483 18.6663H8.20935C8.64814 18.0914 8.90955 17.3742 8.90955 16.5968V14.9562C8.90955 14.5787 8.60351 14.2726 8.22596 14.2726H6.68309C6.67646 14.1887 6.66723 14.1006 6.65472 14.0091C7.14246 13.9338 7.72365 13.744 8.1658 13.2935C8.99575 12.4474 8.91734 11.1139 8.89971 10.9085C8.88863 10.7498 8.82246 10.5942 8.70112 10.4728C8.58177 10.3534 8.42933 10.2875 8.27333 10.2748C7.97036 10.2437 6.6528 10.1629 5.83454 10.9967C5.59952 11.2362 5.43942 11.5149 5.33066 11.7969C4.38628 11.2297 3.23613 11.2958 3.01779 11.3143C2.85824 11.3248 2.70156 11.3911 2.57961 11.5131C2.46019 11.6325 2.39422 11.7852 2.38164 11.9414C2.35136 12.232 2.27855 13.3536 2.81169 14.2726H2.75721C2.37966 14.2726 2.07361 14.5787 2.07361 14.9562V16.5968C2.07361 17.3743 2.33502 18.0915 2.77382 18.6663H0.683594C0.306045 18.6663 0 18.9724 0 19.3499V30.2874C0 30.665 0.306045 30.971 0.683594 30.971H5.55926L4.69554 34.1364C4.63948 34.342 4.68241 34.562 4.81175 34.7313C4.94108 34.9006 5.14192 35 5.355 35H8.36281C8.62538 35 8.86477 34.8496 8.97873 34.613L10.7326 30.9711H24.2672L26.0211 34.613C26.1351 34.8496 26.3744 35 26.6371 35H29.6449C29.8579 35 30.0588 34.9006 30.1881 34.7313C30.3175 34.562 30.3604 34.342 30.3043 34.1364L29.4406 30.971H34.3164C34.694 30.971 35 30.665 35 30.2874V19.3499C35 18.9724 34.694 18.6663 34.3164 18.6663H28.597C27.5667 18.6663 26.7285 17.8281 26.7285 16.7979V15.5859H33.2227ZM6.81023 11.9544C6.97799 11.7835 7.24322 11.6967 7.49937 11.6562C7.45233 11.9039 7.36039 12.1623 7.18997 12.336C7.02311 12.5061 6.76341 12.5977 6.51417 12.6445C6.55525 12.3927 6.64111 12.1267 6.81023 11.9544ZM4.85659 13.1446C5.14145 13.4241 5.26408 13.8735 5.31009 14.2578C4.92181 14.2195 4.46216 14.1061 4.17683 13.826C3.89587 13.5503 3.78239 13.0897 3.74473 12.6948C4.12576 12.742 4.5714 12.8648 4.85659 13.1446ZM3.44073 15.6398H5.49719C5.54306 15.641 5.58749 15.6418 5.62933 15.6418C5.67595 15.6418 5.71901 15.641 5.75989 15.6398H7.54229V16.5968C7.54229 17.7276 6.62231 18.6476 5.49151 18.6476C4.36071 18.6476 3.44073 17.7276 3.44073 16.5968V15.6398ZM7.93338 33.6328H6.25017L6.97642 30.971H9.21519L7.93338 33.6328ZM11.2109 29.6039H1.36719V20.0336H11.2109V29.6039ZM22.4219 29.6039H12.5781V20.0336H22.4219V29.6039ZM23.1055 18.6477C23.0673 18.6477 23.0302 18.6516 22.9938 18.6576C23.365 18.131 23.584 17.4897 23.584 16.7979V15.5859H25.3613V16.7979C25.3613 17.4936 25.5828 18.1381 25.9578 18.6664H23.2621C23.2118 18.6546 23.1595 18.6477 23.1055 18.6477ZM27.0666 33.6328L25.7847 30.971H28.0235L28.7498 33.6328H27.0666ZM33.6328 20.0336V29.6039H23.7891V25.6736H29.1439C29.5214 25.6736 29.8275 25.3675 29.8275 24.99C29.8275 24.6125 29.5214 24.3064 29.1439 24.3064H23.7891V20.0336H33.6328ZM23.1466 14.2188L27.9155 9.44986C28.1825 9.18292 28.1825 8.75007 27.9155 8.48306C27.6486 8.21611 27.2157 8.21618 26.9488 8.48306L21.2535 14.1783C21.2406 14.1913 21.2287 14.2049 21.217 14.2187H15.7227C15.4965 14.2187 15.3125 14.0348 15.3125 13.8086V4.51172C15.3125 4.28552 15.4965 4.10156 15.7227 4.10156H33.2227C33.4489 4.10156 33.6328 4.28552 33.6328 4.51172V13.8086C33.6328 14.0348 33.4489 14.2188 33.2227 14.2188H23.1466Z" fill="white"/>
</g>
<defs>
<clipPath id="clip0_66_833">
<rect width="35" height="35" fill="white"/>
</clipPath>
</defs>
</svg>
