<svg width="35" height="35" viewBox="0 0 35 35" fill="none" xmlns="http://www.w3.org/2000/svg">
<g clip-path="url(#clip0_66_804)">
<path d="M32.0341 24.6181H31.4409V23.4318C31.439 21.7946 30.1122 20.4679 28.4751 20.4659H15.4254C13.7882 20.4679 12.4615 21.7946 12.4595 23.4318V24.6181H11.8664C10.2292 24.6201 8.90244 25.9468 8.90051 27.584V32.3293C8.90051 33.6397 9.9628 34.702 11.2732 34.702C12.5836 34.702 13.6459 33.6397 13.6459 32.3293V31.7362H30.2546V32.3293C30.2546 33.6397 31.3169 34.702 32.6272 34.702C33.9376 34.702 34.9999 33.6397 34.9999 32.3293V27.584C34.9979 25.9468 33.6712 24.6201 32.0341 24.6181ZM12.4595 26.9908V32.3293C12.4595 32.9845 11.9284 33.5157 11.2732 33.5157C10.618 33.5157 10.0868 32.9845 10.0868 32.3293V27.584C10.0868 26.6012 10.8835 25.8045 11.8664 25.8045H12.4595V26.9908ZM30.2546 30.5498H13.6459V28.1771H30.2546V30.5498ZM30.2546 24.6181V26.9908H13.6459V23.4318C13.6459 22.449 14.4426 21.6523 15.4254 21.6523H28.4751C29.4579 21.6523 30.2546 22.449 30.2546 23.4318V24.6181ZM33.8136 32.3293C33.8136 32.9845 33.2825 33.5157 32.6272 33.5157C31.972 33.5157 31.4409 32.9845 31.4409 32.3293V25.8045H32.0341C33.0169 25.8045 33.8136 26.6012 33.8136 27.584V32.3293Z" fill="white"/>
<path d="M7.12129 24.6182H4.15545V20.4661H5.34178V22.2456H6.52812V20.4661C6.8557 20.4677 7.12263 20.2034 7.12426 19.8759C7.12433 19.855 7.12337 19.8343 7.12129 19.8136L6.52812 13.8819C6.49757 13.5777 6.24073 13.3465 5.93495 13.348H1.1896C0.883823 13.3465 0.626981 13.5777 0.596433 13.8819L0.00326406 19.8136C-0.0295085 20.1395 0.208204 20.4303 0.53415 20.4631C0.554837 20.4652 0.575672 20.4661 0.596433 20.4661H2.96911V24.6182H0.596433C0.268855 24.6182 0.00326406 24.8838 0.00326406 25.2114V34.1089C0.00326406 34.4365 0.268855 34.7021 0.596433 34.7021C0.92401 34.7021 1.1896 34.4365 1.1896 34.1089V29.9568H6.52812V34.1089C6.52812 34.4365 6.79371 34.7021 7.12129 34.7021C7.44887 34.7021 7.71446 34.4365 7.71446 34.1089V25.2114C7.71446 24.8838 7.44887 24.6182 7.12129 24.6182ZM1.25188 19.2797L1.72642 14.5344H5.4011L5.87564 19.2797H1.25188ZM6.52812 28.7704H1.1896V25.8046H6.52812V28.7704Z" fill="white"/>
<path d="M11.9079 16.5202C11.9102 16.5307 11.9133 16.541 11.9168 16.5511V16.5582C11.9447 16.6178 11.9824 16.6724 12.0283 16.7195C12.0408 16.7332 12.0556 16.7432 12.0693 16.7557C12.108 16.7894 12.1509 16.8181 12.1968 16.8411C12.2144 16.8507 12.2327 16.8592 12.2514 16.8666C12.3178 16.8925 12.3883 16.9061 12.4596 16.907H27.882C28.2095 16.907 28.4751 16.6414 28.4751 16.3138V5.63675C28.4751 5.30918 28.2095 5.04358 27.882 5.04358H26.9038L21.1347 0.428137C20.9328 0.266647 20.6497 0.254413 20.4347 0.397886L13.468 5.04358H12.4596C12.132 5.04358 11.8664 5.30918 11.8664 5.63675V16.3138C11.8664 16.3239 11.8717 16.3322 11.8723 16.3423C11.8749 16.4031 11.8869 16.4631 11.9079 16.5202ZM18.9844 15.7206H13.7806L17.1741 11.9024L20.1441 15.7206H18.9844ZM21.6472 15.7206L21.1086 15.0284L23.1028 13.0342L25.4061 15.7206H21.6472ZM20.7349 1.62575L25.0045 5.04358H15.6034L20.7349 1.62575ZM13.0527 6.22992H27.2888V15.7206H26.9685L23.5874 11.7755C23.4798 11.6497 23.3246 11.5747 23.1592 11.5684C22.9938 11.5601 22.8328 11.6232 22.7172 11.7416L20.3748 14.0841L17.6729 10.6105C17.5647 10.4716 17.4004 10.3879 17.2245 10.3821C17.0481 10.3745 16.8778 10.4476 16.7618 10.5808L13.0527 14.7538V6.22992Z" fill="white"/>
<path d="M20.7639 10.9753C21.7467 10.9753 22.5434 10.1786 22.5434 9.19577C22.5434 8.21296 21.7467 7.41626 20.7639 7.41626C19.7811 7.41626 18.9844 8.21296 18.9844 9.19577C18.9844 10.1786 19.7811 10.9753 20.7639 10.9753ZM20.7639 8.6026C21.0915 8.6026 21.3571 8.86819 21.3571 9.19577C21.3571 9.52335 21.0915 9.78894 20.7639 9.78894C20.4363 9.78894 20.1707 9.52335 20.1707 9.19577C20.1707 8.86819 20.4362 8.6026 20.7639 8.6026Z" fill="white"/>
<path d="M16.0186 22.8386H14.8323V24.025H16.0186V22.8386Z" fill="white"/>
<path d="M19.5776 22.8386H18.3912V24.025H19.5776V22.8386Z" fill="white"/>
<path d="M17.7981 24.6182H16.6118V25.8045H17.7981V24.6182Z" fill="white"/>
<path d="M25.5093 22.8386H24.3229V24.025H25.5093V22.8386Z" fill="white"/>
<path d="M29.0683 22.8386H27.882V24.025H29.0683V22.8386Z" fill="white"/>
<path d="M27.2888 24.6182H26.1024V25.8045H27.2888V24.6182Z" fill="white"/>
</g>
<defs>
<clipPath id="clip0_66_804">
<rect width="35" height="35" fill="white"/>
</clipPath>
</defs>
</svg>
