<svg width="39" height="49" viewBox="0 0 39 49" fill="none" xmlns="http://www.w3.org/2000/svg">
<path d="M38.75 9.49063V3.23672L2.5 0V6.25391L3.75 6.36563V18.8078H1.25V23.6391C0.524375 23.9625 0 24.8219 0 25.8391V27.4016C0 28.4188 0.524375 29.2782 1.25 29.6016V37.7024C0.524375 38.025 0 38.8844 0 39.9016V43.0266C0 44.3188 0.84125 45.3704 1.875 45.3704H2.56312C2.65812 45.9508 2.86438 46.4766 3.14062 46.9329H0V48.4954H37.5V29.6016C38.2256 29.2782 38.75 28.4188 38.75 27.4016V25.8391C38.75 24.8219 38.2256 23.9625 37.5 23.6391V9.37892L38.75 9.49063ZM3.75 1.67813L37.5 4.69063V7.81173L3.75 4.79922V1.67813ZM5 6.47657L20 7.81641V23.4953H17.5V18.8078H5V6.47657ZM6.25 20.3703V23.4953H5V20.3703H6.25ZM7.5 20.3703H8.75V23.4953H7.5V20.3703ZM10 20.3703H11.25V23.4953H10V20.3703ZM12.5 20.3703H13.75V23.4953H12.5V20.3703ZM15 20.3703H16.25V23.4953H15V20.3703ZM2.5 20.3703H3.75V23.4953H2.5V20.3703ZM8.68688 45.3704H11.25V46.9329H8.10875C8.38562 46.4766 8.59188 45.9508 8.68688 45.3704ZM11.25 37.5633L8.34062 37.5594C9.17125 36.7235 10.1838 36.1961 11.25 36.0453V37.5633ZM12.5 29.7453H21.25V46.9329H12.5V29.7453ZM11.25 31.4391C8.075 31.9821 5.19688 34.2227 3.41 37.5578H2.5V29.7453H11.25V31.4391ZM1.25 43.0266V39.9016C1.25 39.4704 1.53062 39.1204 1.875 39.1204H4.09625L4.28 38.7532C5.82125 35.6703 8.39375 33.5899 11.25 33.0368V34.4789C9.33062 34.7016 7.54125 35.9274 6.375 37.8696L5.62563 39.1188L11.25 39.1258V43.8079H8.68688C8.39625 42.0274 7.13438 40.6829 5.625 40.6829C4.11562 40.6829 2.85375 42.0274 2.56312 43.8079H1.875C1.53062 43.8079 1.25 43.4579 1.25 43.0266ZM3.75 44.5891C3.75 43.2969 4.59125 42.2454 5.625 42.2454C6.65875 42.2454 7.5 43.2969 7.5 44.5891C7.5 45.8813 6.65875 46.9329 5.625 46.9329C4.59125 46.9329 3.75 45.8813 3.75 44.5891ZM33.75 46.9329H30V34.4328H33.75V46.9329ZM28.75 46.9329H25V34.4328H28.75V46.9329ZM35 46.9329V32.8703H23.75V46.9329H22.5V29.7453H36.25V46.9329H35ZM37.5 27.4016C37.5 27.8328 37.2194 28.1828 36.875 28.1828H1.875C1.53062 28.1828 1.25 27.8328 1.25 27.4016V25.8391C1.25 25.4078 1.53062 25.0578 1.875 25.0578H17.5H36.875C37.2194 25.0578 37.5 25.4078 37.5 25.8391V27.4016ZM36.25 23.4953H21.25V7.92813L36.25 9.26798V23.4953Z" fill="white"/>
<path d="M27.5 21.9329V10.9954H22.5V21.9329H27.5ZM23.75 12.5579H26.25V20.3704H23.75V12.5579Z" fill="white"/>
<path d="M35 10.9954H30V21.9329H35V10.9954ZM33.75 20.3704H31.25V12.5579H33.75V20.3704Z" fill="white"/>
<path d="M6.25 14.1204H11.25V9.43286H6.25V14.1204ZM7.5 10.9954H10V12.5579H7.5V10.9954Z" fill="white"/>
<path d="M18.75 9.43286H13.75V14.1204H18.75V9.43286ZM17.5 12.5579H15V10.9954H17.5V12.5579Z" fill="white"/>
<path d="M13.75 31.3079V37.5579H20V31.3079H13.75ZM18.75 35.9954H15V32.8704H18.75V35.9954Z" fill="white"/>
</svg>
